<?xml version="1.0" encoding="UTF-8"?>
<svg xmlns="http://www.w3.org/2000/svg" xmlns:xlink="http://www.w3.org/1999/xlink" width="112pt" height="128pt" viewBox="0 0 112 128" version="1.1">
<g id="surface1">
<path style=" stroke:none;fill-rule:nonzero;fill:rgb(0%,0%,0%);fill-opacity:1;" d="M 56 64 C 73.675781 64 88 49.675781 88 32 C 88 14.324219 73.675781 0 56 0 C 38.324219 0 24 14.324219 24 32 C 24 49.675781 38.324219 64 56 64 Z M 78.398438 72 L 74.226562 72 C 68.675781 74.550781 62.5 76 56 76 C 49.5 76 43.351562 74.550781 37.773438 72 L 33.601562 72 C 15.050781 72 0 87.050781 0 105.601562 L 0 116 C 0 122.625 5.375 128 12 128 L 100 128 C 106.625 128 112 122.625 112 116 L 112 105.601562 C 112 87.050781 96.949219 72 78.398438 72 Z M 78.398438 72 "/>
</g>
</svg>
